<?xml version="1.0" encoding="iso-8859-1"?>
<!-- Generator: Adobe Illustrator 19.0.0, SVG Export Plug-In . SVG Version: 6.00 Build 0)  -->
<svg version="1.1" id="Layer_1" xmlns="http://www.w3.org/2000/svg" xmlns:xlink="http://www.w3.org/1999/xlink" x="0px" y="0px"
	 viewBox="0 0 473.931 473.931" style="enable-background:new 0 0 473.931 473.931;" xml:space="preserve">
<circle style="fill:#C0D5D7;" cx="236.966" cy="236.966" r="236.966"/>
<circle style="fill:#F1EB75;" cx="222.522" cy="200.719" r="117.155"/>
<g>
	<path style="fill:#FFFFFF;" d="M397.592,287.468c0.243-1.781,1.407-3.315,1.407-5.167c0-28.213-30.514-51.094-68.167-51.094
		c-4.924,0-9.309,1.366-13.957,2.118c-11.285-14.997-31.876-25.549-56.501-25.549c-31.884,0-57.219,17.343-63.206,39.951
		c-30.922,6.136-54.248,26.32-54.248,51.457c0,23.805,20.797,43.408,49.257,50.671c9.643,21.702,36.082,37.605,68.197,37.605
		c29.137,0,53.833-13.048,65.496-31.569c7.487,2.499,15.671,3.981,24.389,3.981c33.384,0,60.467-20.314,60.467-45.406
		C410.726,304.16,405.322,295.098,397.592,287.468z"/>
	<path style="fill:#FFFFFF;" d="M217.886,292.991c0.146-1.081,0.853-2.017,0.853-3.139c0-17.141-18.537-31.042-41.41-31.042
		c-2.993,0-5.654,0.834-8.479,1.291c-6.851-9.111-19.36-15.517-34.319-15.517c-19.367,0-34.761,10.529-38.394,24.262
		c-18.784,3.734-32.954,15.989-32.954,31.259c0,14.458,12.632,26.364,29.915,30.78c5.86,13.182,21.919,22.843,41.429,22.843
		c17.699,0,32.699-7.925,39.782-19.177c4.554,1.515,9.519,2.417,14.817,2.417c20.277,0,36.733-12.344,36.733-27.581
		C225.864,303.127,222.579,297.623,217.886,292.991z"/>
</g>
<g>
</g>
<g>
</g>
<g>
</g>
<g>
</g>
<g>
</g>
<g>
</g>
<g>
</g>
<g>
</g>
<g>
</g>
<g>
</g>
<g>
</g>
<g>
</g>
<g>
</g>
<g>
</g>
<g>
</g>
</svg>
